<svg xmlns="http://www.w3.org/2000/svg" width="960" height="320" viewBox="0 0 960 320">
  <g fill="none" fill-rule="evenodd">
    <g transform="translate(40)">
      <polygon fill="#DEB500" points="140 300 140 320 100 320 100 300 80 300 80 280 160 280 160 300"/>
      <polygon fill="#FFD100" points="240 220 240 280 0 280 0 220 20 220 20 200 40 200 40 180 60 180 60 100 80 100 80 80 100 80 100 60 80 60 80 20 100 20 100 0 140 0 140 20 160 20 160 60 140 60 140 80 160 80 160 100 180 100 180 180 200 180 200 200 220 200 220 220"/>
      <path fill="#FFF1B1" d="M40,220 L40,260 L20,260 L20,220 L40,220 Z M100,100 L100,140 L80,140 L80,100 L100,100 Z M100,20 L120,20 L120,40 L100,40 L100,20 Z M100,80 L120,80 L120,100 L100,100 L100,80 Z M60,180 L80,180 L80,200 L60,200 L60,180 Z M40,200 L60,200 L60,220 L40,220 L40,200 Z"/>
    </g>
    <g transform="translate(360)">
      <polygon fill="#DEB500" points="80 300 80 320 40 320 40 300 20 300 20 280 100 280 100 300"/>
      <polygon fill="#FFD100" points="240 220 240 280 0 280 0 220 20 220 20 200 40 200 40 180 60 180 60 100 80 100 80 80 100 80 100 60 80 60 80 20 100 20 100 0 140 0 140 20 160 20 160 60 140 60 140 80 160 80 160 100 180 100 180 180 200 180 200 200 220 200 220 220"/>
      <path fill="#FFF1B1" d="M40,220 L40,260 L20,260 L20,220 L40,220 Z M100,100 L100,140 L80,140 L80,100 L100,100 Z M100,20 L120,20 L120,40 L100,40 L100,20 Z M100,80 L120,80 L120,100 L100,100 L100,80 Z M60,180 L80,180 L80,200 L60,200 L60,180 Z M40,200 L60,200 L60,220 L40,220 L40,200 Z"/>
    </g>
    <g transform="translate(680)">
      <polygon fill="#DEB500" points="200 300 200 320 160 320 160 300 140 300 140 280 220 280 220 300"/>
      <polygon fill="#FFD100" points="240 220 240 280 0 280 0 220 20 220 20 200 40 200 40 180 60 180 60 100 80 100 80 80 100 80 100 60 80 60 80 20 100 20 100 0 140 0 140 20 160 20 160 60 140 60 140 80 160 80 160 100 180 100 180 180 200 180 200 200 220 200 220 220"/>
      <path fill="#FFF1B1" d="M40,220 L40,260 L20,260 L20,220 L40,220 Z M100,100 L100,140 L80,140 L80,100 L100,100 Z M100,20 L120,20 L120,40 L100,40 L100,20 Z M100,80 L120,80 L120,100 L100,100 L100,80 Z M60,180 L80,180 L80,200 L60,200 L60,180 Z M40,200 L60,200 L60,220 L40,220 L40,200 Z"/>
    </g>
  </g>
</svg>
