<svg xmlns="http://www.w3.org/2000/svg" width="320" height="320" viewBox="0 0 320 320">
  <g fill="none" fill-rule="evenodd" transform="translate(-39 59)">
    <polygon fill="#DEB500" points="279 241 279 201 299 201 299 181 339 181 339 201 359 201 359 241 339 241 339 261 299 261 299 241"/>
    <g transform="rotate(-130 142.795 136.713)">
      <polygon fill="#FFD100" points="180 260 180 280 0 280 0 220 20 220 20 200 40 200 40 180 60 180 60 100 80 100 80 80 100 80 100 60 80 60 80 20 100 20 100 0 140 0 140 20 160 20 160 60 140 60 140 80 160 80 160 100 180 100 180 180 200 180 200 200 200 260"/>
      <path fill="#FFF1B1" d="M40,220 L40,260 L20,260 L20,220 L40,220 Z M100,100 L100,140 L80,140 L80,100 L100,100 Z M100,20 L120,20 L120,40 L100,40 L100,20 Z M100,80 L120,80 L120,100 L100,100 L100,80 Z M60,180 L80,180 L80,200 L60,200 L60,180 Z M40,200 L60,200 L60,220 L40,220 L40,200 Z"/>
      <path fill="#DEB500" d="M80,180 L80,120 L100,120 L100,140 L120,140 L120,160 L100,160 L100,200 L60,200 L60,180 L80,180 Z M201,180 L201,260 L181,260 L181,280 L161,280 L161,240 L181,240 L181,180 L201,180 Z M60,100 L80,100 L80,120 L60,120 L60,100 Z M120,160 L140,160 L140,180 L120,180 L120,160 Z M140,180 L160,180 L160,200 L140,200 L140,180 Z M40,200 L60,200 L60,220 L40,220 L40,200 Z M141,220 L161,220 L161,240 L141,240 L141,220 Z"/>
    </g>
  </g>
</svg>
